<svg width="1354" height="753" viewBox="0 0 1354 753" fill="none" xmlns="http://www.w3.org/2000/svg">
<path d="M840.056 64.1367H785.202V119.835L724.441 180.596V206.757C724.441 248.109 713.47 266.675 671.275 273.426C637.519 278.827 615.858 247.546 611.357 231.23L554.816 246.421C565.618 316.634 631.611 330.812 672.963 330.812C757.354 330.812 787.734 264.987 787.734 204.225V119.835L840.056 64.1367Z" fill="black"/>
<path d="M37.5041 364.568H311.774L299.959 420.266H88.1385C73.2858 420.266 72.3856 430.955 73.7921 436.3C84.2003 470.056 105.716 544.587 113.456 571.325C122.739 603.394 127.802 603.394 153.119 603.394C183.5 603.675 249.99 603.394 272.954 603.394C294.896 603.394 294.896 600.862 299.115 581.452C327.759 449.691 375.911 175.195 379.287 153.591C382.662 131.987 406.573 129.399 418.106 130.805H510.092V186.503C508.123 186.222 475.5 186.503 445.111 186.503C429.921 186.503 428.344 200.006 427.389 205.069C403.197 333.343 351.269 609.301 347.218 632.93C343.167 656.56 320.213 660.217 309.242 659.092C252.701 659.936 133.71 661.623 110.08 661.623C86.4507 661.623 76.0425 642.495 73.7921 632.93C53.8197 571.325 13.0295 438.832 2.90392 405.075C-7.47476 370.475 11.3429 364.568 37.5041 364.568Z" fill="#FFCC00"/>
<circle cx="143.835" cy="712.259" r="40.5076" fill="#FFCC00"/>
<circle cx="273.801" cy="712.259" r="40.5076" fill="#FFCC00"/>
<circle cx="952.299" cy="179.754" r="112.24" fill="black"/>
<path d="M559.879 138.401L712.626 0C712.064 0.509764 704.198 0 669.592 0C599.52 3.95602e-06 551.446 44.7257 556.502 133.337C558.426 167.049 596.167 224.479 669.587 224.479V138.401H559.879Z" fill="black"/>
<rect x="722.76" width="64.137" height="67.5126" fill="black"/>
<path d="M820.651 376.383H883.944L796.178 508.032L883.944 674.282H820.651L756.514 552.759L737.104 583.14V674.282H673.811V376.383H737.104V506.344L820.651 376.383Z" fill="black"/>
<path d="M1151.46 376.383H1230.79L1297.46 555.291V376.383H1354V673.438H1287.33L1208.85 460.773V673.438H1151.46V376.383Z" fill="black"/>
<path d="M1120.24 673.438H1056.94L1045.97 620.272H966.646L955.676 673.438H899.134L962.427 376.383H1056.1L1120.24 673.438ZM974.243 578.921H1036.69L1005.47 427.861L974.243 578.921Z" fill="black"/>
<path fill-rule="evenodd" clip-rule="evenodd" d="M539.63 373.008C652.712 373.008 629.927 455.711 632.459 528.287C632.459 595.869 652.712 675.971 537.94 675.971C413.042 675.971 441.735 602.551 437.516 528.287C441.735 453.18 411.355 373.008 539.63 373.008ZM536.02 415.203C490.895 414.27 500.811 447.271 500.811 527.661C500.811 597.486 491.479 634.62 535.426 634.62C575.808 634.619 570.012 601.705 568.683 527.661C567.133 441.377 576.763 416.046 536.02 415.203Z" fill="black"/>
</svg>
